<?xml version="1.0" standalone="no"?>
<!DOCTYPE svg PUBLIC "-//W3C//DTD SVG 20010904//EN"
 "http://www.w3.org/TR/2001/REC-SVG-20010904/DTD/svg10.dtd">
<svg version="1.0" xmlns="http://www.w3.org/2000/svg"
 width="600.000000pt" height="600.000000pt" viewBox="0 0 600.000000 600.000000"
 preserveAspectRatio="xMidYMid meet">

<g transform="translate(0.000000,600.000000) scale(0.100000,-0.100000)"
fill="#000000" stroke="none">
<path d="M3720 5717 c-19 -7 -81 -42 -137 -79 -55 -36 -117 -74 -137 -83 -20
-10 -36 -21 -36 -25 0 -5 -8 -11 -18 -14 -9 -3 -33 -20 -52 -38 -19 -17 -50
-42 -69 -55 -89 -60 -316 -277 -307 -292 3 -5 -4 -11 -15 -14 -11 -3 -23 -15
-26 -26 -3 -12 -11 -21 -18 -21 -7 0 -15 -6 -18 -13 -3 -8 -30 -14 -82 -16
-42 -1 -86 -4 -98 -7 -20 -4 -151 -15 -187 -16 -8 -1 -20 -5 -27 -10 -7 -5
-27 -8 -45 -7 -45 5 -128 -10 -128 -22 0 -6 -8 -9 -17 -8 -28 4 -123 -22 -123
-34 0 -6 -3 -8 -6 -4 -8 8 -64 -13 -64 -25 0 -5 -4 -7 -9 -3 -5 3 -16 -1 -23
-9 -8 -7 -57 -35 -109 -60 -52 -26 -113 -61 -136 -78 -49 -36 -76 -38 -135
-10 -24 11 -70 23 -103 28 -33 4 -67 8 -75 10 -140 25 -254 37 -372 38 -54 0
-98 3 -98 6 0 10 -184 10 -224 -1 -23 -6 -62 -12 -87 -14 -62 -3 -99 -23 -121
-66 -18 -35 -32 -119 -19 -119 3 0 5 -35 4 -77 -2 -45 3 -99 12 -128 8 -27 17
-75 20 -106 3 -30 13 -69 21 -85 9 -16 16 -42 16 -59 0 -16 6 -41 13 -55 7
-14 16 -44 20 -68 4 -23 11 -40 16 -37 5 4 6 -1 3 -10 -6 -16 29 -139 53 -185
7 -14 13 -30 13 -36 0 -6 6 -17 14 -23 7 -6 13 -22 13 -34 1 -24 70 -174 112
-242 14 -22 26 -42 27 -45 5 -21 36 -80 55 -103 24 -31 27 -68 9 -121 -7 -22
-10 -113 -8 -259 2 -124 0 -223 -3 -221 -3 1 -6 -18 -7 -44 -3 -129 -14 -266
-22 -283 -6 -10 -11 -37 -11 -61 -1 -24 -8 -53 -15 -65 -8 -12 -16 -30 -17
-40 -2 -10 -18 -49 -35 -86 -30 -62 -31 -69 -17 -91 8 -12 12 -26 8 -30 -10
-10 76 -4 112 7 17 6 34 16 38 24 4 7 16 13 27 13 10 0 28 11 39 25 20 26 72
47 54 22 -5 -7 -8 -46 -7 -87 3 -87 8 -120 23 -147 5 -11 7 -24 3 -28 -4 -5
-2 -5 4 -2 7 4 14 -2 17 -13 3 -10 0 -21 -7 -24 -7 -3 -7 -5 2 -5 7 -1 11 -5
7 -10 -5 -10 52 -141 66 -151 3 -3 16 -21 26 -40 11 -19 23 -33 27 -30 4 3 14
-10 21 -27 8 -18 18 -33 23 -33 5 0 31 -22 58 -50 27 -27 55 -50 63 -50 9 0
25 12 37 27 l22 27 74 -74 c79 -80 91 -90 129 -110 13 -7 26 -16 29 -19 19
-23 124 -71 155 -71 13 0 27 -5 30 -10 4 -6 10 -8 15 -5 14 9 27 -25 39 -104
7 -41 14 -78 17 -82 3 -5 1 -9 -5 -9 -7 0 -7 -8 -2 -22 5 -13 13 -23 20 -22 6
1 21 2 34 3 40 2 177 147 178 188 0 27 24 81 40 91 17 11 21 9 30 -12 6 -13
22 -29 35 -35 29 -13 30 -25 4 -51 -11 -11 -20 -26 -20 -33 0 -7 -16 -32 -35
-54 -19 -22 -40 -62 -47 -88 -7 -26 -18 -50 -25 -52 -7 -3 -13 -14 -13 -24 0
-10 -6 -18 -12 -16 -7 1 -13 -8 -13 -20 0 -13 -6 -28 -13 -35 -7 -7 -12 -18
-12 -25 0 -7 -4 -13 -10 -13 -5 0 -17 -17 -26 -37 -30 -70 -56 -138 -57 -150
0 -7 -4 -13 -9 -13 -4 0 -8 -6 -8 -13 0 -7 -9 -29 -20 -50 -11 -21 -18 -42
-15 -46 3 -5 -2 -11 -10 -15 -8 -3 -15 -16 -15 -29 0 -13 -3 -27 -7 -31 -4 -3
-8 -12 -9 -19 -4 -19 -28 -81 -34 -87 -3 -3 -21 -45 -39 -95 -19 -49 -40 -104
-47 -122 -8 -17 -14 -40 -14 -52 0 -21 0 -21 405 -21 l405 0 4 23 c10 46 16
94 20 152 8 104 17 199 22 230 3 17 7 46 9 65 4 33 11 80 20 125 9 49 15 84
21 140 4 33 10 65 14 70 4 6 8 32 9 58 1 27 6 57 12 68 5 11 7 24 4 30 -4 5
-1 16 5 24 7 8 10 24 7 35 -3 11 -1 20 4 20 5 0 9 12 9 28 0 15 7 49 15 76 18
60 19 80 3 70 -6 -4 -2 9 11 29 15 24 20 44 16 59 -5 18 -4 20 4 8 9 -12 11
-11 11 6 0 12 6 27 14 33 11 9 18 6 34 -14 11 -14 25 -25 31 -25 6 0 11 -4 11
-10 0 -5 5 -10 12 -10 6 0 19 -6 27 -14 30 -26 78 -29 100 -7 11 11 21 16 23
11 2 -5 18 2 36 16 18 14 29 30 26 36 -5 7 -2 8 6 3 8 -5 20 3 34 20 14 18 27
25 35 21 9 -6 9 -12 -4 -26 -11 -12 -14 -28 -10 -56 8 -53 8 -54 -4 -99 -14
-53 -14 -175 -1 -175 7 0 7 -6 1 -17 -5 -10 -7 -31 -4 -48 2 -16 6 -70 8 -120
2 -49 7 -115 11 -145 4 -30 9 -64 10 -75 2 -11 5 -51 8 -90 7 -103 15 -165 23
-177 3 -7 1 -8 -5 -4 -7 4 -12 2 -12 -3 0 -6 4 -11 10 -11 5 0 7 -6 4 -14 -3
-8 -1 -17 5 -21 6 -3 11 -11 11 -16 0 -6 -4 -7 -10 -4 -6 4 -9 -20 -7 -63 1
-39 6 -68 10 -65 5 3 7 -1 6 -8 -2 -8 1 -33 5 -56 5 -30 13 -43 24 -43 14 0
14 -2 3 -9 -40 -26 7 -31 270 -31 l271 0 -6 38 c-3 20 -13 64 -22 97 -17 63
-34 130 -39 155 -1 8 -5 31 -9 50 -3 19 -9 46 -12 60 -3 14 -8 39 -11 55 -3
17 -10 33 -16 36 -9 6 -16 161 -20 474 l-2 120 44 57 c24 32 48 55 53 52 5 -3
7 -8 4 -11 -9 -10 40 -49 84 -65 53 -21 64 -22 54 -5 -5 9 -4 9 6 0 15 -14 43
-5 33 11 -4 6 0 5 9 -2 14 -11 20 -11 38 0 19 12 21 20 17 86 l-4 72 34 17
c19 9 37 23 40 32 4 9 18 27 32 41 14 14 33 39 41 55 8 17 20 37 28 47 7 9 14
22 16 30 1 7 5 19 9 26 5 6 5 12 0 12 -4 0 0 5 10 11 26 15 31 5 13 -23 -13
-20 -15 -63 -4 -73 12 -10 48 -14 48 -5 0 6 11 16 25 22 14 6 25 16 25 22 0 6
18 22 40 35 21 14 37 28 34 33 -3 4 1 5 9 2 8 -2 19 5 25 18 7 13 21 37 31 53
11 17 20 37 20 45 1 9 6 21 13 28 15 15 20 45 7 52 -5 4 -1 15 9 26 11 11 19
35 20 54 0 19 5 43 11 55 6 11 16 62 23 114 12 83 15 93 28 80 18 -17 74 -54
78 -51 1 1 16 -5 32 -13 17 -9 30 -13 30 -11 0 3 11 1 24 -4 31 -11 106 8 129
33 20 24 20 23 6 49 -9 16 -8 19 2 13 9 -6 11 -3 6 9 -4 10 -7 20 -7 22 0 2
-9 4 -21 4 -11 0 -17 5 -14 10 9 15 -17 70 -33 70 -7 0 -10 4 -7 10 3 5 -6 22
-20 37 -17 19 -24 35 -20 50 3 12 -1 28 -10 36 -8 8 -16 25 -19 38 -2 13 -7
40 -11 60 -5 29 -4 36 9 36 9 0 16 -6 16 -14 0 -24 3 -28 32 -42 15 -7 28 -20
28 -28 0 -11 4 -11 20 -3 11 6 20 7 20 3 1 -4 8 8 17 27 15 35 24 158 11 166
-3 2 -3 16 1 31 7 28 -6 82 -23 94 -4 4 -3 9 2 13 13 8 7 83 -7 100 -6 7 -8
16 -5 19 4 4 1 20 -5 36 -7 16 -14 39 -16 52 -3 24 -31 112 -57 179 -7 19 -26
54 -41 77 -15 24 -34 62 -44 85 -9 24 -22 50 -30 59 -7 8 -13 22 -13 30 0 8
-9 25 -20 39 -11 14 -20 31 -20 37 0 7 -11 32 -25 55 -15 24 -33 60 -42 81 -9
20 -19 37 -24 37 -4 0 -15 21 -24 48 -10 26 -21 56 -25 67 -5 11 -16 40 -25
65 -15 42 -24 64 -59 145 -7 17 -24 55 -37 85 -12 30 -28 62 -34 70 -6 8 -24
40 -39 70 -16 30 -45 77 -64 104 -36 52 -37 58 -29 169 3 37 2 67 -2 67 -4 0
-8 15 -8 33 0 17 -3 43 -8 57 -4 14 -8 41 -9 60 -1 19 -5 42 -8 50 -7 19 -29
110 -32 130 -14 98 -55 262 -83 327 -7 17 -16 46 -19 65 -7 37 -61 155 -75
164 -5 3 -9 14 -9 25 0 10 -4 19 -9 19 -5 0 -13 10 -16 23 -13 45 -36 87 -48
87 -7 0 -6 4 3 10 10 6 11 10 3 10 -7 0 -13 6 -13 13 0 27 -105 141 -121 132
-5 -4 -9 -2 -9 3 0 13 -59 12 -100 -1z m81 -110 c26 -21 70 -96 75 -127 2 -8
8 -16 13 -18 6 -2 11 -10 11 -18 0 -8 4 -22 9 -32 5 -9 15 -31 22 -49 7 -17
16 -30 20 -28 3 3 6 -9 7 -26 0 -18 10 -38 22 -49 11 -10 20 -22 18 -26 -1 -5
1 -28 5 -52 5 -28 11 -41 19 -36 8 5 9 -2 5 -24 -4 -20 -1 -34 8 -42 8 -7 12
-16 9 -21 -3 -5 -2 -15 3 -21 6 -10 34 -101 46 -153 1 -5 5 -15 9 -20 4 -6 9
-31 12 -55 3 -25 10 -67 16 -95 6 -27 13 -70 16 -95 3 -25 8 -56 12 -70 9 -30
8 -190 -1 -214 -6 -15 -11 -14 -47 9 -22 14 -43 25 -46 25 -4 0 -24 16 -46 35
-21 20 -42 33 -47 31 -4 -3 -27 13 -51 34 -25 22 -49 40 -55 40 -12 1 -55 35
-55 44 0 4 8 3 18 -2 9 -5 26 -6 37 -1 11 4 16 8 10 8 -5 1 -3 6 5 12 11 7 12
12 3 15 -7 3 -9 12 -6 20 3 8 2 14 -3 12 -5 -1 -19 3 -31 10 -16 9 -23 9 -23
2 0 -6 -4 -9 -10 -5 -5 3 -7 12 -3 20 3 9 -1 15 -10 15 -14 0 -14 3 -3 26 17
31 10 60 -17 79 -27 19 -61 20 -51 3 6 -10 5 -10 -8 -1 -8 7 -18 10 -21 6 -4
-3 -28 -8 -53 -10 -26 -2 -53 -8 -60 -14 -7 -5 -14 -6 -17 -2 -6 9 -2 62 6 83
4 8 6 26 6 40 -1 14 4 44 10 68 6 23 13 55 15 70 2 15 6 34 8 42 18 50 25 93
21 110 -3 11 0 20 6 20 6 0 11 8 11 18 0 10 7 27 15 39 8 11 21 47 30 79 8 31
22 66 32 76 20 22 31 130 11 110 -15 -15 -32 -16 -23 -2 3 6 -1 10 -10 10 -10
0 -13 -5 -9 -12 5 -8 2 -9 -12 -4 -10 4 -15 4 -11 0 4 -4 1 -14 -6 -22 -10
-13 -9 -14 2 -7 8 5 3 -7 -12 -27 -15 -19 -27 -40 -27 -47 0 -6 -9 -24 -20
-39 -10 -15 -21 -38 -24 -52 -5 -25 -22 -81 -47 -150 -17 -49 -22 -63 -24 -76
-2 -6 -10 -37 -19 -69 -10 -31 -18 -85 -19 -120 -1 -35 -5 -61 -8 -59 -4 2 -3
-11 1 -29 8 -38 -5 -64 -32 -64 -10 0 -18 7 -18 16 0 14 -2 14 -10 1 -8 -12
-10 -12 -15 2 -4 10 -14 14 -26 11 -13 -4 -19 0 -19 11 0 10 -4 14 -10 11 -5
-3 -10 -2 -10 4 0 5 -8 10 -17 10 -23 -1 -93 25 -102 37 -3 5 -13 10 -21 10
-25 1 -70 16 -70 23 0 4 -8 7 -17 8 -10 1 -56 11 -102 22 -46 12 -86 20 -88
17 -3 -2 9 -7 26 -11 17 -4 31 -11 31 -16 0 -12 -17 -11 -25 2 -4 6 -13 8 -20
5 -8 -3 -18 1 -24 8 -8 10 -6 18 9 31 12 11 18 25 15 34 -3 8 -3 13 0 9 4 -3
70 55 146 130 77 75 146 139 152 141 7 2 29 21 49 43 21 21 45 38 53 38 9 0
18 7 21 15 3 8 14 17 25 20 10 4 19 13 19 21 0 8 3 13 8 12 14 -3 42 14 36 23
-3 5 2 9 11 9 21 0 67 28 109 65 6 6 38 26 71 44 33 19 63 38 67 44 6 10 65
44 78 46 3 0 17 -10 31 -22z m-2785 -882 c87 -3 178 -7 203 -11 25 -3 73 -8
106 -10 78 -6 125 -11 150 -17 11 -3 45 -8 75 -12 30 -4 70 -13 89 -21 18 -8
41 -14 50 -14 9 0 29 -7 44 -15 16 -8 47 -20 69 -26 40 -10 41 -11 17 -22 -13
-7 -28 -22 -34 -35 -5 -12 -13 -22 -18 -22 -11 0 -137 -129 -137 -141 0 -5 -9
-14 -20 -21 -11 -7 -20 -18 -20 -25 0 -7 -4 -13 -10 -13 -5 0 -10 -9 -10 -20
0 -18 -10 -25 -32 -21 -5 0 -8 -4 -8 -9 0 -16 -49 14 -100 60 -24 22 -50 38
-57 36 -7 -3 -13 0 -13 7 0 17 -135 117 -158 117 -5 0 -18 9 -30 20 -12 12
-22 18 -22 14 0 -4 -8 0 -17 8 -10 8 -40 26 -68 39 -27 13 -56 29 -62 36 -7 6
-30 17 -50 24 -21 6 -47 18 -58 25 -11 7 -29 13 -40 12 -11 0 -27 1 -35 3 -10
3 -14 -2 -12 -13 2 -10 -1 -18 -6 -18 -5 0 -9 -7 -9 -15 0 -8 9 -15 19 -15 10
0 18 -7 18 -16 0 -11 6 -15 20 -11 12 3 17 1 14 -5 -6 -9 20 -21 39 -18 5 1
17 -9 28 -21 10 -12 19 -19 19 -14 0 4 8 1 17 -6 15 -12 16 -12 8 1 -4 8 4 2
19 -13 14 -16 32 -27 38 -25 7 3 24 -7 37 -20 14 -14 52 -42 85 -64 33 -21 63
-42 66 -46 3 -4 21 -15 40 -24 45 -23 65 -37 102 -70 17 -16 34 -28 39 -28 25
0 4 -21 -31 -31 -22 -7 -40 -16 -40 -20 0 -4 -10 -9 -22 -11 -12 -2 -29 -15
-37 -29 -12 -22 -12 -31 -2 -58 8 -18 21 -31 31 -31 16 0 30 -19 30 -41 0 -5
-7 -9 -15 -9 -8 0 -15 -6 -15 -13 0 -7 -9 -32 -20 -55 -12 -24 -18 -47 -15
-52 3 -5 -2 -13 -11 -18 -15 -9 -16 -14 -4 -41 14 -34 27 -40 32 -14 3 14 5
14 15 2 9 -11 6 -27 -16 -74 -16 -33 -34 -78 -41 -100 -7 -22 -19 -58 -27 -80
-8 -22 -17 -58 -19 -80 -3 -22 -9 -51 -13 -65 -16 -43 -24 -84 -22 -104 2 -10
-2 -17 -9 -14 -14 4 -22 18 -91 163 -29 61 -56 112 -60 115 -4 3 -14 23 -22
45 -8 22 -33 84 -55 138 -57 135 -82 210 -85 245 -1 17 -5 28 -9 26 -6 -4 -14
23 -21 76 -2 8 -5 20 -8 25 -4 6 -5 21 -4 35 1 14 -3 36 -11 50 -7 14 -22 66
-34 115 -32 141 -34 151 -46 296 -6 74 -6 77 17 90 13 7 26 12 29 12 3 0 10 1
15 3 16 5 79 10 88 6 4 -2 77 -5 163 -7z m2347 -892 c-4 -10 -2 -14 4 -10 6 4
18 -8 28 -26 9 -17 24 -45 32 -62 9 -16 29 -46 44 -66 16 -20 29 -41 29 -47 0
-5 7 -15 15 -22 25 -21 17 -26 -32 -22 -68 6 -84 6 -115 -3 -31 -8 -31 -9 -29
90 1 28 2 80 2 118 1 49 5 67 15 67 8 0 11 -6 7 -17z m-362 -247 c1 -6 3 -28
4 -50 1 -21 6 -72 10 -115 11 -105 12 -241 3 -247 -5 -3 -6 -10 -2 -15 3 -6 0
-33 -6 -61 -10 -41 -10 -52 1 -59 24 -15 47 -10 75 15 14 13 34 30 43 38 21
19 61 70 61 79 0 4 9 11 20 14 13 4 20 15 20 31 0 15 4 23 11 19 6 -4 13 2 16
14 3 12 9 21 14 21 5 0 9 8 9 17 0 9 10 57 22 106 16 65 27 91 42 99 29 16
162 16 178 0 15 -15 52 -16 42 -1 -3 6 8 3 25 -5 17 -9 31 -23 31 -31 0 -8 4
-15 10 -15 5 0 7 -6 4 -14 -3 -8 3 -22 14 -32 10 -11 31 -40 46 -66 16 -27 32
-48 38 -48 6 0 8 -9 5 -20 -3 -11 -1 -20 4 -20 10 0 33 -40 26 -47 -3 -2 -31
-7 -64 -9 -61 -5 -177 -33 -228 -55 -16 -7 -43 -14 -59 -16 -28 -3 -182 -68
-200 -83 -11 -11 -11 -59 1 -71 6 -6 21 -5 42 2 17 6 35 9 38 6 3 -4 -2 -25
-12 -49 -17 -43 -22 -177 -10 -242 19 -95 93 -199 154 -216 62 -17 177 -12
219 9 86 45 123 118 117 230 -2 39 -7 76 -11 82 -4 7 -8 25 -10 40 -4 35 -58
156 -81 181 -21 23 -30 23 -38 -2 -22 -69 -155 -68 -155 1 0 23 47 39 212 74
9 2 26 8 37 14 11 6 28 11 38 11 26 0 68 25 66 38 -2 7 1 12 6 12 15 0 28 45
38 128 4 43 3 52 -11 52 -9 0 -13 6 -10 14 11 29 30 10 89 -84 6 -9 24 -34 40
-55 17 -22 36 -52 43 -67 6 -16 16 -28 22 -28 5 0 10 -5 10 -12 0 -6 10 -25
23 -42 28 -36 73 -121 82 -153 3 -13 11 -23 16 -23 20 0 -6 -104 -30 -120 -12
-7 -53 -75 -91 -150 -19 -36 -45 -83 -59 -105 -38 -60 -58 -96 -76 -135 -21
-47 -47 -94 -55 -100 -4 -3 -19 -31 -35 -64 -16 -32 -37 -67 -48 -76 -10 -10
-20 -24 -21 -31 -5 -22 -35 -85 -36 -74 -1 10 -21 -19 -21 -30 0 -2 -15 -33
-35 -67 -19 -35 -59 -111 -89 -170 -53 -104 -55 -106 -95 -113 -22 -4 -40 -11
-40 -16 0 -5 -9 -9 -21 -9 -26 0 -109 -45 -131 -72 -10 -11 -18 -28 -18 -38 0
-10 -9 -22 -20 -25 -11 -3 -20 -11 -20 -16 0 -6 -4 -7 -10 -4 -5 3 -10 2 -10
-2 0 -5 -24 -34 -54 -66 l-55 -57 -40 21 c-22 11 -43 30 -47 41 -4 13 -12 18
-24 15 -12 -3 -22 3 -29 19 -6 13 -15 24 -21 24 -6 0 -16 13 -21 29 l-11 30
-236 -4 c-186 -2 -249 0 -292 12 -30 8 -60 16 -67 17 -7 1 -16 5 -19 9 -4 4
-15 7 -24 7 -46 0 -181 79 -199 116 -8 16 -17 31 -21 34 -4 3 -10 15 -14 27
-4 12 -15 24 -24 27 -11 4 -19 18 -20 38 -2 18 -8 36 -15 40 -7 4 -12 11 -13
15 0 4 -9 26 -19 48 -10 22 -22 64 -26 94 -4 30 -14 58 -22 63 -8 4 -20 22
-28 40 -7 18 -15 35 -18 38 -15 13 -40 69 -46 103 -4 20 -11 40 -16 43 -5 3
-7 10 -4 15 4 5 2 9 -2 9 -5 0 -9 9 -9 21 0 14 8 22 28 26 26 5 28 8 22 42 -3
20 -12 45 -19 56 -7 13 -9 30 -4 50 6 21 4 36 -7 53 -10 15 -12 31 -8 45 5 12
7 26 6 30 -1 5 -5 33 -7 63 -5 52 -5 54 19 54 13 0 29 7 36 15 7 8 15 13 19
10 4 -2 30 15 57 39 27 24 59 48 72 55 12 7 20 16 17 21 -3 5 4 11 15 15 22 7
27 24 8 26 -7 0 2 5 20 10 17 5 32 14 32 19 0 5 7 7 15 4 11 -5 13 -2 9 10 -4
11 -1 16 11 16 19 0 35 15 54 53 9 16 20 26 28 23 7 -3 13 -1 13 5 0 6 5 7 10
4 14 -9 13 -26 -2 -22 -6 1 -16 -14 -22 -33 -6 -19 -19 -46 -29 -60 -16 -24
-16 -25 3 -32 11 -4 20 -13 20 -19 0 -16 95 -4 126 16 13 8 30 12 38 9 8 -3
21 -2 28 2 7 4 24 9 37 10 14 2 30 9 36 16 5 7 17 14 25 16 8 2 17 8 18 13 2
5 8 6 13 3 11 -6 79 36 79 49 0 5 4 6 8 3 5 -3 42 26 83 64 41 39 70 70 64 70
-5 0 1 7 13 16 12 8 22 19 22 24 0 5 24 35 54 67 30 31 53 60 51 64 -3 4 2 12
9 19 22 18 78 159 80 201 1 24 5 35 14 32 6 -3 13 -10 13 -17z m303 -131 c-4
-8 -10 -15 -15 -15 -4 0 -6 7 -3 15 4 8 10 15 15 15 4 0 6 -7 3 -15z m-34 -39
c0 -2 -8 -10 -17 -17 -16 -13 -17 -12 -4 4 13 16 21 21 21 13z m545 -226 c8
-13 -5 -13 -25 0 -13 8 -13 10 2 10 9 0 20 -4 23 -10z m-1841 -55 c-29 -29
-31 -30 -31 -10 0 8 2 13 5 10 2 -2 11 2 19 10 8 8 18 15 23 15 5 0 -2 -11
-16 -25z m2516 0 c0 -8 -4 -23 -10 -33 -5 -9 -16 -34 -24 -54 -14 -37 -46 -52
-60 -29 -6 10 17 61 46 104 21 29 48 36 48 12z m146 -27 c4 -13 2 -24 -5 -26
-6 -2 -11 -9 -11 -15 0 -7 -9 -29 -20 -50 -11 -21 -17 -43 -14 -49 4 -6 3 -8
-4 -4 -6 3 -12 -3 -14 -16 -4 -30 -20 -32 -40 -4 -17 23 -16 26 12 83 16 32
30 64 30 71 0 11 31 29 52 31 4 1 10 -9 14 -21z m110 -73 c4 -8 -1 -31 -11
-50 -9 -20 -18 -45 -20 -57 -3 -12 -14 -31 -26 -43 -12 -11 -19 -15 -15 -8 3
6 -1 19 -10 27 -15 15 -14 20 5 61 22 48 50 85 64 85 4 0 10 -7 13 -15z m-311
-117 c39 -34 33 -52 -15 -45 -24 3 -40 1 -40 -5 0 -6 -6 -5 -15 2 -17 14 -17
14 -20 -20 -2 -15 5 -30 17 -39 16 -11 19 -21 15 -55 -6 -48 -1 -61 29 -68 23
-6 54 21 54 47 0 9 9 15 21 15 17 0 19 -3 10 -14 -8 -10 -8 -16 1 -23 18 -15
60 -27 81 -24 15 2 16 -1 5 -23 -6 -14 -15 -26 -19 -26 -12 0 -79 -105 -79
-123 0 -8 -6 -17 -12 -19 -17 -6 -78 13 -78 23 0 5 -6 6 -13 3 -7 -2 -26 7
-41 21 -15 13 -37 27 -49 30 -13 4 -30 23 -41 46 -11 21 -23 39 -27 39 -15 0
-6 45 18 98 14 30 26 64 27 77 0 13 3 21 5 19 7 -6 31 18 26 26 -3 4 5 18 18
32 30 33 88 36 122 6z m195 -108 c0 -6 -65 -40 -75 -40 -3 0 -5 15 -5 34 0 30
4 35 28 38 24 3 52 -14 52 -32z m-8 -922 c-7 -7 -12 -8 -12 -2 0 14 12 26 19
19 2 -3 -1 -11 -7 -17z m-1322 -592 c0 -2 -8 -10 -17 -17 -16 -13 -17 -12 -4
4 13 16 21 21 21 13z"/>
<path d="M2265 2865 c-120 -16 -231 -41 -290 -65 -68 -27 -94 -42 -99 -56 -10
-25 -7 -33 17 -49 23 -15 56 -10 108 16 9 4 32 11 52 14 l35 7 -8 -39 c-48
-210 14 -405 149 -468 43 -21 67 -26 102 -23 46 5 136 44 176 77 53 44 70 169
39 285 -19 72 -46 126 -92 181 -33 41 -35 55 -6 55 25 0 50 29 45 50 -3 11 -9
17 -14 14 -5 -3 -9 0 -9 5 0 14 -88 12 -205 -4z m152 -102 c14 -21 13 -25 -15
-53 -37 -36 -82 -40 -113 -9 -34 34 -22 53 46 77 43 15 66 10 82 -15z"/>
<path d="M2961 2094 c-53 -45 -91 -99 -84 -122 3 -12 12 -22 21 -22 14 0 72
56 72 70 0 3 15 14 34 23 34 16 36 15 95 -14 71 -34 68 -33 88 -14 23 24 10
40 -58 74 -78 39 -126 40 -168 5z"/>
</g>
</svg>
